<svg width="16" height="16" viewBox="0 0 22 22" fill="none" xmlns="http://www.w3.org/2000/svg">
<path fill-rule="evenodd" clip-rule="evenodd" d="M12.4725 0.30943C14.3891 0.797463 16.118 1.84251 17.4406 3.31249C19.2126 5.28821 20.1279 7.88612 19.9856 10.5359C19.8432 13.1856 18.6549 15.6706 16.6815 17.4452C15.2089 18.7652 13.3781 19.6191 11.4202 19.8992C9.46232 20.1792 7.46535 19.8728 5.68165 19.0186C3.89794 18.1644 2.40755 16.8009 1.39883 15.1002C0.390117 13.3995 -0.0916579 11.4381 0.0143952 9.46378C0.120448 7.48947 0.809569 5.5909 1.99467 4.008C3.17977 2.42509 4.80766 1.2289 6.67261 0.570588C8.53757 -0.0877222 10.5559 -0.178603 12.4725 0.30943ZM9.99542 7.1875L13.3665 11.6733L16.875 11.6676L9.99542 2.5L3.125 11.6676H6.66098L9.99542 7.1875Z" fill="black"/>
</svg>
