<svg width="16" height="16" viewBox="0 0 22 22" fill="none" xmlns="http://www.w3.org/2000/svg">
<path fill-rule="evenodd" clip-rule="evenodd" d="M 13.054379 1.309132 C 14.970979 1.797165 16.699879 2.842212 18.022479 4.312192 C 19.794479 6.287912 20.709779 8.885822 20.567479 11.535602 C 20.425079 14.185302 19.236779 16.670302 17.263379 18.444902 C 15.790779 19.764902 13.959979 20.618802 12.002079 20.898902 C 10.044199 21.178902 8.047229 20.872502 6.263529 20.018301 C 4.479819 19.164102 2.989429 17.800601 1.980709 16.099902 C 0.971996 14.399202 0.490221 12.437802 0.596274 10.463482 C 0.702327 8.489172 1.391448 6.590602 2.576549 5.007702 C 3.761649 3.424792 5.389539 2.228602 7.254489 1.570290 C 9.119449 0.911979 11.137779 0.821099 13.054379 1.309132 Z M 10.577299 8.187202 L 13.948379 12.673001 L 17.456879 12.667302 L 10.577299 3.499702 L 3.706879 12.667302 H 7.242859 L 10.577299 8.187202 Z" fill="black"/>
</svg>
