<?xml version="1.0" standalone="no"?>
<!DOCTYPE svg PUBLIC "-//W3C//DTD SVG 20010904//EN"
 "http://www.w3.org/TR/2001/REC-SVG-20010904/DTD/svg10.dtd">
<svg version="1.0" xmlns="http://www.w3.org/2000/svg"
 width="1500.000000pt" height="1500.000000pt" viewBox="0 0 1500.000000 1500.000000"
 preserveAspectRatio="xMidYMid meet">

<g transform="translate(0.000000,1500.000000) scale(0.100000,-0.100000)"
stroke="currentColor">
<path d="M0 7500 l0 -7500 7500 0 7500 0 0 7500 0 7500 -7500 0 -7500 0 0
-7500z m7762 3145 c712 -94 1326 -421 1818 -970 406 -453 890 -654 1471 -614
504 34 1020 -122 1442 -439 124 -92 324 -286 417 -402 145 -183 275 -407 355
-615 418 -1079 37 -2313 -901 -2925 -292 -190 -638 -309 -989 -339 -169 -15
-6940 -15 -7073 0 -381 41 -676 182 -943 448 -229 229 -346 446 -421 781 -20
94 -23 130 -23 330 1 195 4 239 23 327 69 318 202 571 414 789 164 169 302
261 530 354 201 83 288 144 392 273 104 128 170 281 202 461 8 50 33 159 54
241 144 558 425 1052 830 1455 504 503 1117 791 1830 860 128 12 428 4 572
-15z"/>
<path d="M6370 8152 c-87 -25 -147 -52 -217 -100 -74 -51 -116 -95 -111 -119
6 -35 45 -27 101 22 106 93 258 148 412 148 153 -1 285 -47 403 -143 68 -55
104 -63 110 -24 6 43 -148 154 -280 201 -99 36 -316 43 -418 15z"/>
<path d="M8305 8156 c-157 -41 -354 -169 -343 -223 6 -35 44 -26 110 27 118
96 251 143 403 143 154 0 287 -47 407 -144 66 -53 101 -60 106 -23 6 44 -146
154 -280 202 -63 22 -92 26 -213 29 -93 1 -157 -2 -190 -11z"/>
<path d="M6687 7033 c-37 -36 126 -177 310 -267 172 -85 316 -118 513 -118
203 0 355 34 525 119 156 78 319 207 313 247 -6 41 -44 31 -111 -27 -417 -365
-1044 -361 -1455 8 -46 42 -79 55 -95 38z"/>
</g>
</svg>
